<svg xmlns="http://www.w3.org/2000/svg" viewBox="0 0 49.23 58"><defs><style>.cls-1{fill:none;stroke:#000;stroke-linecap:round;stroke-linejoin:round;stroke-width:2px;}</style></defs><g id="Calque_2" data-name="Calque 2"><g id="Calque_1-2" data-name="Calque 1"><path class="cls-1" d="M7.76,8c-1.81,2-4,3.77-5.32,6.06C.8,16.89.1,20.24,2.86,23a10.73,10.73,0,0,1,3.38,9.52c-1,7.07,2.33,11.91,7.4,16a3.54,3.54,0,0,0,2.49,1c5.75,0,11.5,0,17.24,0,.33,0,.75.14,1,0a29.24,29.24,0,0,0,10.1-11.6c1.18-2.67.82-6.59-.23-9.88"/><path class="cls-1" d="M1.36,1C9.41,7.26,16.37,14.76,24,21.5"/><path class="cls-1" d="M41.25,8c2.51,3,7.26,4.21,7,9.5-.15,2.69-.14,5.26-2.53,7-5.82,4.21-4.83,10.12-3.94,16"/><path class="cls-1" d="M25,16c-4.3-9.79-2.64-8.34-12.81-7.5"/><path class="cls-1" d="M37.8,8.5c-2.57-1.06-5.25-.33-7.88-.48-3.83-.21-2.72,3.84-4.43,5.48"/><path class="cls-1" d="M14.16,14.5c-4.1,1.09-1.89,4.15-2.7,6.75h6.21L18.6,18"/><path class="cls-1" d="M35.83,14.5c4.11,1.09,1.89,4.15,2.89,7.35C35.07,21,31.45,23.17,30.91,18"/><path class="cls-1" d="M47.66,1C41.25,7,35,13.12,28.38,18.92c-1.91,1.69-3.95,3.46-4.71,5.63-1.49,4.28-4.34,4.73-8,4.49-3-.19-5.91,0-8.87,0"/><path class="cls-1" d="M21.06,57A34.92,34.92,0,0,0,8.25,57"/><path class="cls-1" d="M40.76,29.5c-1.73-1-3.67-.66-5.41-.42-4.56.63-7.93-.67-9.86-5.08"/><path class="cls-1" d="M40.76,56.5H28.94"/><path class="cls-1" d="M21.55,29c1.41,2.2,3,4.29,3.45,7"/><path class="cls-1" d="M28.45,29l-3,4.5"/></g></g></svg>